<svg width="32" height="32" viewBox="0 0 32 32" xmlns="http://www.w3.org/2000/svg">
  <!-- Background dengan warna emas Kalimantan Barat -->
  <circle cx="16" cy="16" r="15" fill="#FFD700" stroke="#8B4513" stroke-width="2"/>
  
  <!-- Lambang Kalimantan Barat (simplified) -->
  <g fill="#8B4513" stroke="#000" stroke-width="0.5">
    <!-- Perisai utama -->
    <path d="M16 4 L12 8 L12 20 L16 24 L20 20 L20 8 Z" fill="#DC143C"/>
    
    <!-- Pedang kiri -->
    <g fill="#C0C0C0">
      <rect x="10" y="10" width="1" height="8" transform="rotate(-15 10.5 14)"/>
      <circle cx="10" cy="9" r="1"/>
    </g>
    
    <!-- Pedang kanan -->
    <g fill="#C0C0C0">
      <rect x="21" y="10" width="1" height="8" transform="rotate(15 21.5 14)"/>
      <circle cx="22" cy="9" r="1"/>
    </g>
    
    <!-- Daun laurel kiri -->
    <path d="M8 12 Q6 14 8 16 Q7 18 9 20" fill="#228B22" stroke="#006400"/>
    
    <!-- Daun laurel kanan -->
    <path d="M24 12 Q26 14 24 16 Q25 18 23 20" fill="#228B22" stroke="#006400"/>
    
    <!-- Bintang di tengah -->
    <path d="M16 12 L16.5 14 L18 14 L17 15 L17.5 17 L16 16 L14.5 17 L15 15 L14 14 L15.5 14 Z" fill="#FFD700"/>
  </g>
  
  <!-- Border luar -->
  <circle cx="16" cy="16" r="15" fill="none" stroke="#8B4513" stroke-width="1"/>
</svg>
